<svg width="496" height="635" viewBox="0 0 496 635" fill="none" xmlns="http://www.w3.org/2000/svg">
<path d="M329.866 71.809C351.866 116.809 345.866 171.309 379.866 224.809C413.366 277.809 487.366 330.309 494.366 377.809C501.866 425.309 443.366 468.309 384.366 523.309C325.866 578.309 266.866 645.809 217.866 632.809C168.366 619.809 128.366 526.309 90.8659 464.309C53.3659 402.809 17.8659 372.309 5.36587 334.309C-7.13413 296.309 3.36586 250.809 24.8659 216.309C46.3659 181.809 78.8659 158.309 111.366 116.309C143.366 74.309 175.866 14.309 216.866 2.30901C258.366 -9.691 307.866 26.809 329.866 71.809Z" fill="#9575DE" fill-opacity="0.2"/>
</svg>
