<svg width="1174" height="2686" viewBox="0 0 1174 2686" fill="none" xmlns="http://www.w3.org/2000/svg">
<path d="M602.894 2683.76C448.217 2667.45 242.437 2545.27 123.563 2287.73C4.68818 2030.2 -28.9479 1632.73 27.9545 1414.94C81.3402 1193.24 223.597 1146.65 286.108 1082.41C348.618 1018.17 331.381 936.277 295.404 710.804C259.61 480.078 205.076 105.772 251.853 21.3256C295.113 -67.0273 441.35 139.059 622.532 285.751C803.715 432.442 1023.18 528.897 1114.65 734.171C1207.79 944.024 1171.27 1258.12 1135.84 1488.84C1098.73 1714.98 1061.04 1853.17 1033.72 2008.33C1006.4 2163.49 987.59 2336.29 926.217 2472.73C865.027 2603.91 759.42 2699.4 602.894 2683.76Z" fill="url(#paint0_linear_34_34)"/>
<defs>
<linearGradient id="paint0_linear_34_34" x1="781.745" y1="-184" x2="-909.917" y2="1751.3" gradientUnits="userSpaceOnUse">
<stop stop-color="#6554AF" stop-opacity="0.2"/>
<stop offset="1" stop-color="#9575DE" stop-opacity="0.2"/>
</linearGradient>
</defs>
</svg>
