<svg width="425" height="31" viewBox="0 0 425 31" fill="none" xmlns="http://www.w3.org/2000/svg">
<path d="M407.105 21.048C410.237 21.1066 412.921 21.1066 414.71 21.1652L407.105 21.048Z" fill="#6554AF" fill-opacity="0.3"/>
<path d="M382.947 22.5691C382.5 22.5691 382.5 22.5691 382.053 22.5691C383.842 22.5691 385.632 22.6259 382.947 22.5691Z" fill="#6554AF" fill-opacity="0.3"/>
<path d="M387.869 16.7217C388.316 16.7217 389.211 16.7217 389.211 16.7802C389.211 16.7802 388.763 16.7217 387.869 16.7217Z" fill="#6554AF" fill-opacity="0.3"/>
<path d="M401.737 6.84071C399.947 6.84071 398.605 6.78212 398.158 6.78212C393.684 6.78212 393.684 6.84071 395.474 6.89929C399.5 6.89929 399.5 6.84071 401.737 6.84071Z" fill="#6554AF" fill-opacity="0.3"/>
<path d="M385.184 1.87103L392.79 1.92944C389.658 1.87103 387.421 1.87103 385.184 1.87103Z" fill="#6554AF" fill-opacity="0.3"/>
<path d="M373.105 24.0885C370.868 24.0885 369.079 24.0301 367.289 24.0301L373.105 24.0885Z" fill="#6554AF" fill-opacity="0.3"/>
<path d="M229.5 30.4618L224.579 30.3446C225.026 30.3446 225.921 30.4032 226.816 30.4032C227.711 30.4032 228.605 30.4618 229.5 30.4618Z" fill="#6554AF" fill-opacity="0.3"/>
<path d="M333.737 25.9008C334.632 25.9008 335.526 25.9008 336.421 25.9594C339.105 25.9594 340 25.8422 340 25.725L331.053 25.6078L333.737 25.9008Z" fill="#6554AF" fill-opacity="0.3"/>
<path d="M310.921 26.8365L319.868 26.8949L310.921 26.8365Z" fill="#6554AF" fill-opacity="0.3"/>
<path d="M306.447 29.5259C308.684 29.4087 307.342 29.4087 304.658 29.4087C304.21 29.4087 304.658 29.4673 306.447 29.5259Z" fill="#6554AF" fill-opacity="0.3"/>
<path d="M217.869 30.5197L222.79 30.6368C221.895 30.5783 220.105 30.5197 217.869 30.5197Z" fill="#6554AF" fill-opacity="0.3"/>
<path d="M123.026 30.5785L118.105 30.4613C118.553 30.4613 119.447 30.5199 120.342 30.5199C121.237 30.5785 122.132 30.5785 123.026 30.5785Z" fill="#6554AF" fill-opacity="0.3"/>
<path d="M6.71051 25.6671H25.9474C31.7632 26.4856 12.0789 26.5441 24.6053 27.3042L20.5789 27.2457C16.1053 27.2457 56.8158 27.8888 3.13156 28.1227H1.3421C1.3421 28.1812 5.36841 28.1812 0 28.1812H11.6316C15.6579 28.3566 24.1579 28.532 25.0526 28.7074C22.8158 28.7074 19.2368 28.6489 16.1053 28.6489L17.8947 28.9997L5.8158 28.9412C11.6316 29.1166 36.6842 29.409 21.9211 29.4674C39.3684 29.6428 31.7632 29.7598 40.7105 29.8182C38.4737 29.8182 35.3421 29.7598 32.2105 29.7598C33.5526 29.9352 37.1316 30.286 45.6316 30.5198C45.6316 30.5198 84.5526 30.4029 103.342 30.5198C97.5263 30.6952 105.132 30.6368 111.395 30.6368L107.368 30.5783C112.289 30.5198 123.026 30.6368 126.158 30.6368C125.263 30.6368 124.368 30.6368 123.026 30.5783L124.368 30.6368C122.579 30.6368 121.237 30.5783 119.895 30.5783C117.658 30.5198 115.868 30.5198 116.763 30.4614H117.658C116.316 30.4029 118.553 30.286 119.447 30.286L128.395 30.4029C117.658 30.169 131.974 30.1106 144.053 30.0521C145.842 30.169 148.526 30.2275 151.658 30.3444C151.658 30.3444 190.579 30.2275 209.368 30.3444C203.553 30.5198 211.158 30.4614 217.421 30.4614L213.395 30.4029C218.316 30.3444 229.053 30.4614 232.184 30.4614C231.289 30.4614 230.395 30.4614 229.053 30.4029H230.395C228.605 30.4029 227.263 30.3444 225.921 30.3444C223.684 30.286 221.895 30.286 222.789 30.2275H223.684C222.342 30.169 224.579 30.0521 225.474 30.0521L234.421 30.169C217.421 29.8182 263.5 29.8767 264.842 29.7013C276.921 29.7013 263.053 29.3505 269.763 29.2336C273.789 28.9997 283.632 29.292 292.132 29.2336C298.395 29.1166 281.395 29.1166 280.947 29.0582L294.368 28.9997C294.816 29.1166 300.632 29.1166 304.211 29.1751C306.447 28.9997 324.342 28.9412 306.447 28.6489C316.289 28.532 323.447 28.5904 324.789 28.532C321.211 28.532 318.079 28.532 314.5 28.532C323 28.532 312.711 28.4735 310.921 28.4735C303.763 28.2396 347.158 28.1227 327.026 27.8304L330.605 27.8888C315.842 27.655 301.079 27.538 293.474 27.3042H300.184L294.368 27.1288C299.289 27.1288 303.316 27.1872 305.105 27.2457C298.842 27.0118 307.789 26.8364 310.474 26.661L268.868 26.3687C278.711 26.3102 299.289 26.2518 286.316 26.0179L300.184 26.0764C327.474 26.0179 289.447 25.7255 297.947 25.6671H313.605L312.711 25.8425C320.763 25.784 326.132 25.7255 335.974 25.7255H335.526C335.079 25.7255 334.184 25.7255 333.289 25.7255H332.842C325.684 25.6086 320.763 25.4917 321.658 25.3747C324.342 25.1993 313.605 24.9655 330.605 24.8485L315.395 24.6147L325.237 24.4977L338.211 24.7901C336.868 24.9655 340 25.4332 340 25.7255L345.368 25.784C345.816 25.6086 341.342 25.3747 342.684 25.3163C345.368 25.3163 358.342 25.3163 366.395 25.4917L354.763 25.2578C355.211 24.7316 354.763 24.7316 369.974 24.3223H363.711C360.579 24.1469 357.447 24.03 367.289 24.0885C370.421 23.7961 378.921 23.5038 395.474 23.4453L381.158 23.2699C382.053 23.2115 404.421 23.3284 384.289 23.0945L378.474 22.8607C379.816 22.8022 371.763 22.6268 380.263 22.6268C380.711 22.6268 381.158 22.6268 382.053 22.6268C381.605 22.6268 381.158 22.6268 380.711 22.6268C387.868 22.4514 367.737 22.5099 376.684 22.3345C386.974 22.3345 358.789 22.0421 362.368 21.9837L383.395 22.1006C395.921 21.9837 375.342 21.7498 376.237 21.4575C383.842 21.399 401.737 21.4575 417.395 21.7498C399.053 21.399 405.316 21.5744 396.816 21.2821C404.868 21.3405 406.211 21.3405 413.368 21.4575C422.763 21.2821 406.211 21.1651 407.105 21.0482C392.342 20.8728 369.079 20.5805 368.632 20.522L363.711 20.522C356.105 20.2881 352.974 20.1127 360.579 20.0543L367.737 20.1127L364.605 19.9373L374 19.9958L371.763 19.7619H369.079C368.184 19.7035 365.053 19.4696 370.421 19.4111L376.237 19.5281C393.237 19.4111 372.658 18.9434 371.763 18.5926L382.5 18.7095C393.237 18.7095 365.947 18.5341 371.763 18.4172L385.184 18.5341C368.184 18.2418 389.211 18.4172 395.921 18.3587L378.474 18.2418L382.5 18.1249C388.763 18.0079 404.421 18.1833 413.368 18.3003L399.947 18.0664L415.158 18.1833C397.711 18.0079 418.289 18.1833 409.342 17.9495C415.158 18.0079 418.289 18.0664 420.974 18.0079L399.947 17.5987L408.895 17.8325L386.526 17.5987C369.974 17.3063 389.658 17.4233 383.395 17.2479L389.658 17.3648C384.737 17.1309 394.132 17.1894 399.5 17.1309C395.474 17.1309 389.211 17.1309 386.079 17.014C385.184 16.9555 394.132 17.0725 396.368 17.014C381.605 16.8971 374 16.6632 381.158 16.6047C383.395 16.6047 385.184 16.6632 386.526 16.6632C384.289 16.6047 380.263 16.5463 384.289 16.5463L400.842 16.7217L385.184 16.4878C389.658 16.4293 378.026 16.2539 389.211 16.3709L392.342 16.4293L398.605 16.0201L412.026 16.137C394.132 15.9616 419.632 15.9031 396.816 15.7277C409.342 15.7277 388.763 15.26 414.263 15.5523C416.947 15.2015 392.789 14.8507 406.211 14.5584C428.132 14.5584 421.868 14.0907 425 13.8568C416.947 13.2721 409.342 12.8628 403.526 12.3366C434.395 12.2197 394.579 11.4596 412.474 11.2258L400.395 10.9919C420.079 10.875 397.263 10.4072 416.5 10.1734C411.132 10.0564 409.789 9.99797 409.342 9.99797C408.895 9.99797 406.211 9.99797 398.605 9.99797C403.974 9.9395 397.711 9.70564 412.921 9.82257L414.263 9.88104C429.474 9.99797 407.553 9.58871 420.974 9.53024L404.868 9.47177L408 9.29637L411.132 9.35484C375.789 8.41937 428.579 8.3609 396.368 7.4839C414.263 7.6593 386.974 7.3085 406.658 7.36696C431.711 7.3085 401.737 7.01616 395.474 6.84076C394.579 6.84076 393.237 6.84076 391.895 6.84076L394.579 6.6069C419.184 6.89923 374.447 6.31456 395.026 6.54843C414.263 5.96376 396.816 5.02829 406.211 4.26822H399.947C401.289 4.09282 393.684 3.80049 404.421 3.68355C414.711 3.56662 388.316 3.33275 387.421 3.21582C377.579 3.04042 394.579 2.98195 397.263 2.98195C393.684 2.80655 372.211 2.57268 382.053 2.39728C403.079 2.39728 361.921 1.69568 385.632 1.75415L383.842 1.75415C400.842 1.52028 372.658 1.11101 387.868 0.81868C387.868 0.81868 389.658 0.81868 391 0.81868L319.421 0.000143051L239.789 0.000143051L212.947 0.175545L133.316 0.175545L68.4474 0.526344L81.421 2.04648L55.0263 3.09889L59.9474 5.96376L77.3947 6.2561C45.1842 6.66536 80.5263 7.54236 56.8158 8.0101L72.0263 8.12703C72.4737 8.30243 63.0789 8.24397 60.3947 8.24397C61.2895 9.82257 78.2895 11.5766 56.3684 12.8044C46.0789 12.8628 51 13.3306 40.2632 13.3306C57.7105 13.9153 56.8158 14.383 53.6842 14.8507L51.8947 14.7923L54.1316 15.0261C52.7895 15.0261 51 15.0261 49.6579 14.9677C62.6316 15.3185 48.3158 15.6108 42.0526 15.8447L40.2632 15.7862C33.1053 17.4817 56.8158 19.3527 30.4211 20.8143C3.13159 21.3405 34.4474 22.6268 10.7368 23.2699C-4.47369 23.5038 0 25.4332 6.71051 25.6671Z" fill="#6554AF" fill-opacity="0.3"/>
<path d="M16.1052 28.6489C12.0789 28.5907 9.84207 28.5325 16.1052 28.6489V28.6489Z" fill="#6554AF" fill-opacity="0.3"/>
<path d="M24.6052 29.7011C23.7105 29.7597 27.7368 29.7597 32.2104 29.8182C31.7631 29.7597 31.3157 29.7011 31.3157 29.7011C29.9736 29.7011 26.3947 29.6426 24.6052 29.7011Z" fill="#6554AF" fill-opacity="0.3"/>
<path d="M111.395 30.6365L116.316 30.7537C115.421 30.6951 113.631 30.6951 111.395 30.6365Z" fill="#6554AF" fill-opacity="0.3"/>
</svg>
