<svg width="821" height="31" viewBox="0 0 821 31" fill="none" xmlns="http://www.w3.org/2000/svg">
<path d="M12.9554 25.667L50.0941 25.667C61.3221 26.4855 23.3196 26.544 47.503 27.3041L39.7298 27.2456C31.0928 27.2456 109.689 27.8887 6.04578 28.1226H2.59106C2.59106 28.1811 10.3643 28.1811 0 28.1811L22.4559 28.1811C30.2292 28.3565 46.6393 28.5319 48.3667 28.7073C44.0482 28.7073 37.1387 28.6488 31.0928 28.6488L34.5477 28.9996L11.228 28.9411C22.456 29.1165 70.8227 29.4089 42.3209 29.4673C76.0048 29.6427 61.3221 29.7597 78.5959 29.8181C74.2774 29.8181 68.2316 29.7597 62.1857 29.7597C64.7768 29.9351 71.6863 30.2859 88.0965 30.5197C88.0965 30.5197 163.238 30.4028 199.513 30.5197C188.285 30.6951 202.967 30.6367 215.059 30.6367L207.286 30.5782C216.787 30.5197 237.515 30.6367 243.561 30.6367C241.834 30.6367 240.106 30.6367 237.515 30.5782L240.106 30.6367C236.651 30.6367 234.06 30.5782 231.469 30.5782C227.151 30.5197 223.696 30.5197 225.423 30.4613H227.151C224.56 30.4028 228.878 30.2859 230.606 30.2859L247.879 30.4028C227.151 30.1689 254.789 30.1105 278.109 30.052C281.563 30.1689 286.746 30.2274 292.791 30.3443C292.791 30.3443 367.933 30.2274 404.208 30.3443C392.98 30.5197 407.662 30.4613 419.754 30.4613L411.981 30.4028C421.481 30.3443 442.21 30.4613 448.256 30.4613C446.528 30.4613 444.801 30.4613 442.21 30.4028H444.801C441.346 30.4028 438.755 30.3443 436.164 30.3443C431.846 30.2859 428.391 30.2859 430.118 30.2274H431.846C429.255 30.1689 433.573 30.052 435.3 30.052L452.574 30.1689C419.754 29.8181 508.714 29.8766 511.305 29.7012C534.625 29.7012 507.851 29.3504 520.806 29.2335C528.579 28.9996 547.58 29.2919 563.99 29.2335C576.082 29.1165 543.262 29.1165 542.398 29.0581L568.309 28.9996C569.173 29.1165 580.401 29.1165 587.31 29.175C591.629 28.9996 626.176 28.9411 591.629 28.6488C610.63 28.5319 624.449 28.5903 627.04 28.5319C620.13 28.5319 614.085 28.5319 607.175 28.5319C623.585 28.5319 603.72 28.4734 600.266 28.4734C586.446 28.2395 670.225 28.1226 631.358 27.8303L638.268 27.8887C609.766 27.6549 581.264 27.5379 566.582 27.3041H579.537L568.309 27.1287C577.81 27.1287 585.583 27.1871 589.038 27.2456C576.946 27.0117 594.22 26.8363 599.402 26.6609L519.079 26.3686C538.08 26.3101 577.81 26.2517 552.762 26.0178L579.537 26.0763C632.222 26.0178 558.808 25.7255 575.218 25.667L605.448 25.667L603.72 25.8424C619.267 25.7839 629.631 25.7255 648.632 25.7255H647.769C646.905 25.7255 645.177 25.7255 643.45 25.7255H642.586C628.767 25.6085 619.267 25.4916 620.994 25.3747C626.176 25.1993 605.448 24.9654 638.268 24.8485L608.902 24.6146L627.904 24.4977L652.951 24.79C650.36 24.9654 656.405 25.4331 656.405 25.7255L666.77 25.7839C667.633 25.6085 658.997 25.3747 661.588 25.3162C666.77 25.3162 691.817 25.3162 707.363 25.4916L684.907 25.2577C685.771 24.7315 684.907 24.7315 714.273 24.3223L702.181 24.3223C696.135 24.1469 690.089 24.0299 709.091 24.0884C715.136 23.7961 731.547 23.5037 763.503 23.4453L735.865 23.2699C737.592 23.2114 780.777 23.3283 741.911 23.0944L730.683 22.8606C733.274 22.8021 717.728 22.6267 734.138 22.6267C735.001 22.6267 735.865 22.6267 737.592 22.6267C736.729 22.6267 735.865 22.6267 735.001 22.6267C748.82 22.4513 709.954 22.5098 727.228 22.3344C747.093 22.3344 692.681 22.042 699.59 21.9836L740.184 22.1005C764.367 21.9836 724.637 21.7497 726.364 21.4574C741.047 21.3989 775.595 21.4574 805.824 21.7497C770.413 21.3989 782.504 21.5743 766.094 21.282C781.641 21.3404 784.232 21.3404 798.051 21.4574C816.188 21.282 784.232 21.165 785.959 21.0481C757.457 20.8727 712.545 20.5804 711.682 20.5219H702.181C687.498 20.288 681.453 20.1126 696.135 20.0542L709.954 20.1126L703.908 19.9372L722.046 19.9957L717.728 19.7618L712.545 19.7618C710.818 19.7034 704.772 19.4695 715.136 19.411L726.364 19.528C759.185 19.411 719.455 18.9433 717.728 18.5925L738.456 18.7094C759.185 18.7094 706.5 18.534 717.728 18.4171L743.638 18.534C710.818 18.2417 751.412 18.4171 764.367 18.3586L730.683 18.2417L738.456 18.1248C750.548 18.0078 780.777 18.1832 798.051 18.3002L772.14 18.0663L801.506 18.1832C767.822 18.0078 807.551 18.1832 790.278 17.9494C801.506 18.0078 807.551 18.0663 812.734 18.0078L772.14 17.5986L789.414 17.8324L746.229 17.5986C714.273 17.3062 752.275 17.4232 740.184 17.2478L752.275 17.3647C742.775 17.1308 760.912 17.1893 771.276 17.1308C763.503 17.1308 751.412 17.1308 745.366 17.0139C743.638 16.9554 760.912 17.0724 765.231 17.0139C736.729 16.897 722.046 16.6631 735.865 16.6046C740.184 16.6046 743.638 16.6631 746.229 16.6631C741.911 16.6046 734.138 16.5462 741.911 16.5462L773.867 16.7216L743.638 16.4877C752.275 16.4292 729.819 16.2538 751.412 16.3708L757.457 16.4292L769.549 16.02L795.46 16.1369C760.912 15.9615 810.143 15.903 766.094 15.7276C790.278 15.7276 750.548 15.2599 799.778 15.5522C804.96 15.2014 758.321 14.8506 784.232 14.5583C826.553 14.5583 814.461 14.0906 820.507 13.8567C804.96 13.272 790.278 12.8628 779.05 12.3366C838.644 12.2196 761.776 11.4596 796.323 11.2257L773.004 10.9918C811.006 10.8749 766.958 10.4071 804.097 10.1733C793.732 10.0563 791.141 9.99788 790.278 9.99788C789.414 9.99788 784.232 9.99788 769.549 9.99788C779.913 9.93941 767.822 9.70555 797.187 9.82248L799.778 9.88095C829.144 9.99788 786.823 9.58861 812.734 9.53015L781.641 9.47168L787.687 9.29628L793.732 9.35474C725.501 8.41928 827.416 8.36081 765.231 7.48381C799.778 7.65921 747.093 7.30841 785.095 7.36687C833.462 7.30841 775.595 7.01607 763.503 6.84067C761.776 6.84067 759.185 6.84067 756.594 6.84067L761.776 6.6068C809.279 6.89914 722.91 6.31447 762.64 6.54834C799.778 5.96367 766.094 5.0282 784.232 4.26813H772.14C774.731 4.09273 760.048 3.8004 780.777 3.68346C800.642 3.56653 749.684 3.33266 747.957 3.21573C728.956 3.04033 761.776 2.98186 766.958 2.98186C760.048 2.80646 718.591 2.57259 737.592 2.39719C778.186 2.39719 698.726 1.69559 744.502 1.75406H741.047C773.868 1.52019 719.455 1.11092 748.82 0.818588C748.82 0.818588 752.275 0.818588 754.866 0.818588L616.676 5.14984e-05L462.939 5.14984e-05L411.117 0.175453L257.38 0.175453L132.145 0.526253L157.192 2.04639L106.234 3.09879L115.735 5.96367L149.419 6.256C87.2328 6.66527 155.464 7.54227 109.689 8.01001L139.054 8.12694C139.918 8.30234 121.78 8.24388 116.598 8.24388C118.326 9.82248 151.146 11.5765 108.825 12.8043C88.9602 12.8628 98.4608 13.3305 77.7322 13.3305C111.416 13.9152 109.689 14.3829 103.643 14.8506L100.188 14.7922L104.507 15.026C101.916 15.026 98.4608 15.026 95.8697 14.9676C120.917 15.3184 93.2787 15.6107 81.187 15.8446L77.7322 15.7861C63.9131 17.4816 109.689 19.3526 58.731 20.8142C6.04584 21.3404 66.5042 22.6267 20.7286 23.2699C-8.6369 23.5037 0 25.4331 12.9554 25.667Z" fill="#6554AF" fill-opacity="0.3"/>
</svg>
