<svg width="50" height="58" viewBox="0 0 50 58" fill="none" xmlns="http://www.w3.org/2000/svg">
<path d="M42.5112 10.8369C37.8348 6.14941 31.6071 3.57129 24.9888 3.57129C11.3281 3.57129 0.212054 14.6874 0.212054 28.3481C0.212054 32.7119 1.35045 36.9753 3.51562 40.7365L0 53.5713L13.1362 50.1226C16.7522 52.0981 20.8259 53.136 24.9777 53.136H24.9888C38.6384 53.136 50 42.02 50 28.3592C50 21.7409 47.1875 15.5244 42.5112 10.8369ZM24.9888 48.9619C21.2835 48.9619 17.6562 47.9686 14.4978 46.0936L13.75 45.6472L5.95982 47.6896L8.03571 40.0891L7.54464 39.3079C5.47991 36.0266 4.39732 32.2432 4.39732 28.3481C4.39732 16.9976 13.6384 7.75656 25 7.75656C30.5022 7.75656 35.6696 9.89941 39.5536 13.7945C43.4375 17.6896 45.8259 22.857 45.8147 28.3592C45.8147 39.7208 36.3393 48.9619 24.9888 48.9619ZM36.2835 33.5378C35.6696 33.2253 32.6228 31.7298 32.0536 31.5289C31.4844 31.3168 31.0714 31.2164 30.6585 31.8414C30.2455 32.4664 29.0625 33.8503 28.6942 34.2744C28.3371 34.6874 27.9688 34.7432 27.3549 34.4307C23.7165 32.6115 21.3281 31.1829 18.9286 27.0646C18.2924 25.9708 19.5647 26.049 20.7478 23.6829C20.9487 23.2699 20.8482 22.9128 20.692 22.6003C20.5357 22.2878 19.2969 19.2409 18.7835 18.0021C18.2812 16.7967 17.7679 16.9641 17.3884 16.9418C17.0312 16.9195 16.6183 16.9195 16.2054 16.9195C15.7924 16.9195 15.1228 17.0758 14.5536 17.6896C13.9844 18.3146 12.3884 19.8101 12.3884 22.857C12.3884 25.9039 14.6094 28.8503 14.9107 29.2633C15.2232 29.6762 19.2746 35.9262 25.4911 38.6159C29.4196 40.3124 30.9598 40.4574 32.9241 40.1673C34.1183 39.9887 36.5848 38.6717 37.0982 37.2208C37.6116 35.77 37.6116 34.5311 37.4554 34.2744C37.3103 33.9954 36.8973 33.8391 36.2835 33.5378Z" fill="white"/>
</svg>
